<svg width="118" height="41" viewBox="0 0 118 41" fill="none" xmlns="http://www.w3.org/2000/svg">
<path d="M10.042 3.57031C19.5928 3.57031 22.625 8.56543 22.625 13.9414C22.625 21.3242 17.6299 29.8789 9.5 29.8789C7.66895 29.8789 5.58887 29.2783 4.37305 28.6484C3.86035 28.4873 3.81641 28.2822 3.81641 27.6377C3.81641 21.1484 4.28516 13.751 7.44922 9.09277C8.1377 8.60938 8.76758 8.375 9.33887 8.375C10.0566 8.375 10.6426 8.77051 11.126 9.57617C9.33887 11.9932 8.81152 15.6699 8.34277 18.9219C7.80078 22.5107 7.625 23.8584 7.625 25.2207C7.625 26.6709 7.72754 27.125 9.03125 27.125C14.9053 27.125 19.0508 19.7129 19.0508 14.2197C19.0508 9.69336 15.9453 6.99805 11.4336 6.99805C8.1377 6.99805 4.8125 7.75977 3.75781 9.51758C2.33691 11.7295 1.47266 12.9746 0.842773 12.9746C0.417969 12.9746 0.198242 12.4766 0.198242 11.4951C0.198242 5.75293 4.90039 3.57031 10.042 3.57031ZM22.5078 25.9385C22.5078 23.375 23.4453 17.8379 24.1924 15.9336C24.5 15.084 24.749 14.9375 25.6426 14.9375C26.6533 14.9375 26.6973 15.0547 26.6973 16.2705C26.6973 16.9883 26.6826 18.1016 26.7266 19.0977H26.8877C27.6641 17.5303 28.7773 14.9375 30.916 14.9375C31.6777 14.9375 32.3516 15.4502 32.3516 16.3145C32.3516 16.9883 31.8828 18.8633 31.8828 19.6689C31.8828 21.0752 32.4688 21.5 33.084 21.5C33.9629 21.5 34.959 21.0312 35.7354 20.5479C36.1895 20.2695 36.6436 19.9473 37.083 19.5811L36.8633 23.0088C35.8525 23.668 34.2412 24.7812 32.6152 24.7812C29.7002 24.7812 29.1875 22.1592 28.8799 19.7129H28.6455L26.0234 27.0225C25.4814 28.5312 25.0859 29 24.3682 29C22.7715 29 22.5078 27.5059 22.5078 25.9385ZM44.2754 17.8672L44.1582 18.0283C44.7295 19.1562 45.0078 20.4746 45.0078 21.6318C45.0078 25.0889 42.6641 29 39.0605 29C35.6182 29 34.2266 25.7041 34.2266 22.5986C34.2266 18.3066 36.8779 14.9375 41.2285 14.9375C44.9492 14.9375 47.6738 17.457 49.7979 20.123L49.5195 22.1885C48.4502 20.7676 45.6816 18.8047 44.2754 17.8672ZM39.6318 26.1875C40.9795 26.1875 42.1953 23.1992 42.1953 20.9287C42.1953 19.1416 41.6826 17.75 40.4814 17.75C38.8701 17.75 37.5078 20.7969 37.5078 23.1992C37.5078 24.8252 38.0938 26.1875 39.6318 26.1875ZM53.8555 26.085L53.9434 26.3926C57.8838 26.3926 60.3594 24.7373 62.0732 22.7158L62.2344 26.0703C60.9746 27.6084 58.5576 29 56.2578 29C55.9795 29 55.7012 28.8389 52.4492 28.3701V28.6338C52.4492 35.7529 49.8564 40.3965 47.0879 40.3965C44.8613 40.3965 44.2021 38.0527 44.2021 35.2842C44.2021 33.6875 45.3301 31.1387 46.458 29C47.1172 27.7549 47.8789 26.4658 48.7285 25.1328C49.373 20.5625 49.8564 14.9375 54.6318 14.9375C57.0049 14.9375 58.9238 16.1533 58.9238 19.4639C58.9238 22.1006 57.3857 24.5176 53.8555 26.085ZM52.0977 24.9131C54.4268 23.7559 55.4668 21.9688 55.9355 20.1523C56.126 19.2881 56.126 17.6621 54.8076 17.6621C52.6543 17.6621 52.0977 21.4561 52.0977 24.9131ZM47 35.46C47 35.7676 47.249 37.042 47.9961 37.042C49.0068 37.042 48.8457 33.4531 48.9629 31.6514C49.0215 30.5967 49.0508 29.8789 49.0654 29.3955C49.0801 29.1172 49.0801 28.8975 49.0947 28.707C47.9814 30.6406 47 34.7275 47 35.46ZM67.9033 9.7666C65.8232 9.53223 64.7832 8.75586 63.9189 8.75586C63.2158 8.75586 62.6299 9.3125 61.7656 11.2314C61.2236 12.418 60.6084 12.7842 60.1982 12.7842C59.832 12.7842 59.6855 12.4326 59.6855 11.8906C59.6855 11.6709 59.7148 11.4219 59.7588 11.1436C60.418 6.08984 62.5566 5.0791 64.0654 5.0791C65.7793 5.0791 67.4053 6.29492 69.3682 6.33887C70.0859 6.35352 70.7158 6.35352 71.2871 6.35352C74.8467 6.35352 75.2129 6.17773 75.374 6.17773C76.1943 6.17773 76.5312 6.76367 76.5312 7.70117C76.5312 7.99414 76.4873 8.31641 76.4287 8.66797C76.3848 8.77051 76.1797 9.06348 75.6084 9.37109C68.8262 15.9775 65.2812 23.1113 64.5781 23.9902L64.5049 24.3271C64.5488 24.3271 67.4785 25.8799 68.8701 25.8799C72.0195 25.8799 73.8066 24.3711 75.2568 23.5508C75.4766 23.3896 75.6816 23.3164 75.9014 23.3164C76.7656 23.3164 77.5713 24.3564 77.5713 25.2354C77.5713 25.5723 77.4834 25.8359 77.3076 26.041C75.9014 27.2129 72.415 29.4395 69.0459 29.4395C68.5186 29.4395 66.4678 28.8535 62.5273 27.0225C61.5312 27.9014 60.5059 28.2529 59.6855 28.2529C58.6309 28.2529 57.9131 27.667 57.9131 26.7148C57.9131 25.9678 58.3672 24.9717 59.5391 23.8438L70.291 9.78125C69.8369 9.78125 69.3682 9.81055 68.8555 9.81055C68.5479 9.81055 68.2256 9.7959 67.9033 9.7666ZM84.6172 17.8672L84.5 18.0283C85.0713 19.1562 85.3496 20.4746 85.3496 21.6318C85.3496 25.0889 83.0059 29 79.4023 29C75.96 29 74.5684 25.7041 74.5684 22.5986C74.5684 18.3066 77.2197 14.9375 81.5703 14.9375C85.291 14.9375 88.0156 17.457 90.1396 20.123L89.8613 22.1885C88.792 20.7676 86.0234 18.8047 84.6172 17.8672ZM79.9736 26.1875C81.3213 26.1875 82.5371 23.1992 82.5371 20.9287C82.5371 19.1416 82.0244 17.75 80.8232 17.75C79.2119 17.75 77.8496 20.7969 77.8496 23.1992C77.8496 24.8252 78.4355 26.1875 79.9736 26.1875ZM97.4199 17.8672L97.3027 18.0283C97.874 19.1562 98.1523 20.4746 98.1523 21.6318C98.1523 25.0889 95.8086 29 92.2051 29C88.7627 29 87.3711 25.7041 87.3711 22.5986C87.3711 18.3066 90.0225 14.9375 94.373 14.9375C98.0938 14.9375 100.818 17.457 102.942 20.123L102.664 22.1885C101.595 20.7676 98.8262 18.8047 97.4199 17.8672ZM92.7764 26.1875C94.124 26.1875 95.3398 23.1992 95.3398 20.9287C95.3398 19.1416 94.8271 17.75 93.626 17.75C92.0146 17.75 90.6523 20.7969 90.6523 23.1992C90.6523 24.8252 91.2383 26.1875 92.7764 26.1875ZM107.557 17.9258C104.964 19.1855 103.543 22.3057 103.543 24.2686C103.543 25.0449 103.821 25.9092 105.184 25.9092C105.887 25.9092 106.561 25.1621 107.029 24.3857C107.308 23.9316 107.557 23.4336 107.776 22.8623C107.601 22.0713 107.615 17.8672 107.557 17.9258ZM117.195 22.7451L117.635 26.1289C116.946 26.6709 116.258 27.1396 115.584 27.5645C114.441 28.2676 113.05 28.9854 112.083 28.9854C111.541 28.9854 109.754 28.6631 108.816 26.3926C107.366 27.7988 105.535 29 103.748 29C101.229 29 100.027 26.6123 100.027 24.166C100.027 20.4307 103.045 16.1533 107.498 15.7432C107.674 8.22852 110.926 0.875 114.646 0.875C116.492 0.875 117.166 2.94043 117.166 5.18164C117.166 5.51855 117.151 5.87012 117.122 6.23633C116.609 11.7734 114.192 15.8164 112.156 20.7383C111.966 21.2656 111.717 22.3936 111.717 23.2725C111.717 24.3857 111.966 25.4111 112.742 25.4111C113.475 25.4111 114.559 24.752 115.511 24.0781C116.053 23.6826 116.609 23.2432 117.195 22.7451ZM114.441 7.30566C114.5 6.61719 114.529 6.0752 114.529 5.67969C114.529 4.625 114.339 4.27344 113.987 4.27344C112.112 4.27344 111.351 12.2129 111.233 13.6338C111.072 15.5674 111.072 17.2373 111.072 17.8232V17.9697C111.629 16.6953 112.142 15.4355 112.61 14.1758C113.401 12.0078 114.251 9.37109 114.441 7.30566Z" fill="black"/>
</svg>
